<svg width="91" height="40" viewBox="0 0 91 40" fill="none" xmlns="http://www.w3.org/2000/svg">
<path d="M74.2021 16.5599C74.2021 12.511 76.7643 9.66323 80.4087 9.66323C84.0532 9.66323 86.6562 12.5093 86.6562 16.5599C86.6562 20.6106 84.0537 23.2953 80.4087 23.2953C76.7637 23.2953 74.2021 20.4879 74.2021 16.5599ZM70.3977 16.5599C70.3977 22.5343 74.5623 26.7445 80.4082 26.7445C86.254 26.7445 90.4595 22.5343 90.4595 16.5599C90.4595 10.5856 86.2949 6.21572 80.4082 6.21572C74.5215 6.21572 70.3977 10.5066 70.3977 16.5599ZM50.9758 6.45597L58.8251 26.5032H62.5098L70.3585 6.45597H66.3942L60.7077 21.9328H60.6272L54.9407 6.45597H50.9758ZM35.7184 15.8375C35.9584 12.1481 38.4014 9.66323 41.7254 9.66323C44.6081 9.66323 46.7709 11.5079 47.0914 14.275H40.4435C38.081 14.275 36.799 14.5556 35.8393 15.8392H35.7184V15.8375ZM31.9146 16.439C31.9146 22.4133 36.1195 26.7429 41.9251 26.7429C45.8497 26.7429 49.2928 24.7385 50.7744 21.5699L47.5713 19.9654C46.4504 22.0504 44.2876 23.2937 41.9251 23.2937C39.081 23.2937 36.5188 21.1281 36.5188 19.0431C36.5188 17.9611 37.2398 17.4789 38.2806 17.4789H50.9741V16.397C50.9741 10.3823 47.13 6.21236 41.6046 6.21236C36.0792 6.21236 31.914 10.5033 31.914 16.4373M21.0227 26.5009H24.6268V14.1938C24.6268 11.5477 26.2678 9.66267 28.5515 9.66267C29.5129 9.66267 30.513 9.98356 30.9945 10.4237C31.3553 9.46106 31.9157 8.50006 32.7564 7.53737C31.7949 6.73598 30.1539 6.21347 28.5515 6.21347C24.1469 6.21347 21.0227 9.50138 21.0227 14.1921V26.5021V26.5009ZM3.60417 13.2323V3.44751H9.53059C11.5323 3.44751 12.8545 4.61012 12.8545 6.3742C12.8545 8.37853 11.133 9.90236 7.60937 11.065C5.20659 11.826 4.12601 12.4678 3.72498 13.2306L3.60417 13.2323ZM3.60417 23.0557V18.9664C3.60417 17.162 5.12605 15.3979 7.24861 14.7158C9.13124 14.074 10.6917 13.4322 12.0139 12.7518C13.7757 13.7951 14.8563 15.5978 14.8563 17.4829C14.8563 20.6901 11.8126 23.0557 7.68823 23.0557H3.60417ZM0 26.5032H8.00871C14.0962 26.5032 18.6601 22.6944 18.6601 17.6425C18.6601 14.8754 17.2591 12.3905 14.7758 10.7861C16.0577 9.5025 16.6584 8.019 16.6584 6.2146C16.6584 2.48651 13.9754 0 9.93161 0H0V26.5032Z" fill="#0B996E"/>
<path d="M0 38.4819H0.660747V36.0906H3.37453V35.4928H0.660747V33.5734H3.69704V32.9756H0V38.4819Z" fill="black"/>
<path d="M6.26622 38.6077C7.37534 38.6077 8.38219 37.7739 8.38219 36.4367C8.38219 35.1309 7.37534 34.2971 6.26622 34.2971C5.15711 34.2971 4.15026 35.1309 4.15026 36.4367C4.15026 37.7739 5.15711 38.6077 6.26622 38.6077ZM4.79527 36.4367C4.79527 35.4613 5.40096 34.8635 6.26622 34.8635C7.13149 34.8635 7.73717 35.4613 7.73717 36.4367C7.73717 37.4357 7.13149 38.0414 6.26622 38.0414C5.40096 38.0414 4.79527 37.4357 4.79527 36.4367Z" fill="black"/>
<path d="M9.34768 38.4819H9.97697V37.0345C9.97697 36.2715 10.1107 35.713 10.4568 35.3669C10.7321 35.0916 11.1333 34.95 11.6996 34.9264V34.36C10.6928 34.36 10.1893 34.8084 10.0084 35.6737H9.97697L9.95337 34.423H9.34768V38.4819Z" fill="black"/>
<path d="M12.4436 38.4819H13.0807V36.3502C13.0807 35.3984 13.592 34.8792 14.237 34.8792C14.8427 34.8792 15.2439 35.3197 15.2439 35.9883V38.4819H15.8732V36.3895C15.8732 35.4849 16.3373 34.8792 17.0374 34.8792C17.643 34.8792 18.0442 35.3197 18.0442 35.9883V38.4819H18.6735V35.7838C18.6735 34.8949 18.1229 34.2971 17.2891 34.2971C16.6126 34.2971 16.0934 34.6904 15.8889 35.4062H15.8338C15.7001 34.7298 15.1967 34.2971 14.4888 34.2971C13.8123 34.2971 13.3246 34.6904 13.1201 35.4062H13.0807L13.0335 34.423H12.4357L12.4436 38.4819Z" fill="black"/>
<path d="M21.6579 38.6077C22.6648 38.6077 23.412 37.9863 23.53 37.0581H22.885C22.767 37.6166 22.3344 38.0571 21.6579 38.0571C20.8713 38.0571 20.2892 37.5379 20.2735 36.5547H23.5458C23.5536 36.4524 23.5615 36.358 23.5615 36.2636C23.5615 35.1152 22.7434 34.2971 21.6422 34.2971C20.4623 34.2971 19.6442 35.0759 19.6442 36.4367C19.6442 37.8998 20.4859 38.6077 21.6579 38.6077ZM20.2735 36.1142C20.3286 35.2804 20.887 34.8477 21.6186 34.8477C22.3973 34.8477 22.8693 35.3512 22.9165 36.1142H20.2735Z" fill="black"/>
<path d="M24.5267 38.4819H25.156V37.0345C25.156 36.2715 25.2897 35.713 25.6358 35.3669C25.9111 35.0916 26.3123 34.95 26.8786 34.9264V34.36C25.8718 34.36 25.3683 34.8084 25.1874 35.6737H25.156L25.1324 34.423H24.5267V38.4819Z" fill="black"/>
<path d="M27.599 32.9756V38.4819H28.2283V32.9756H27.599Z" fill="black"/>
<path d="M29.6038 40C30.2881 40 30.6736 39.5359 31.0433 38.6234L32.7659 34.423H32.0737L31.3815 36.24C31.1927 36.7199 30.9803 37.2469 30.7916 37.766H30.7601C30.587 37.2469 30.3904 36.7041 30.2173 36.2243L29.5645 34.423H28.8644L30.4219 38.4661L30.2724 38.8201C30.0679 39.2921 29.8712 39.4415 29.4701 39.4415C29.3363 39.4415 29.179 39.4179 28.9902 39.3707V39.9056C29.2183 39.9685 29.4229 40 29.6038 40Z" fill="black"/>
<path fill-rule="evenodd" clip-rule="evenodd" d="M63.1644 31.9599C63.0426 31.8426 62.8783 31.7837 62.7121 31.7978C62.5459 31.7837 62.3816 31.8426 62.2598 31.9599C62.1379 32.0773 62.0699 32.2422 62.0724 32.414C62.0971 32.7592 62.3761 33.0263 62.7121 33.0263C63.0481 33.0263 63.3271 32.7592 63.3518 32.414C63.3543 32.2422 63.2863 32.0773 63.1644 31.9599ZM59.8231 38.758H60.793L60.7999 31.926H59.7626V34.6723C59.4427 34.0953 58.6336 33.8121 58.0337 33.8121C56.6038 33.8121 55.5354 34.7008 55.5354 36.3429C55.5354 37.9459 56.6246 38.8738 58.0544 38.8738C58.7321 38.8995 59.3759 38.5679 59.7626 37.9939L59.8231 38.758ZM40.7808 34.6527C40.1411 34.6527 39.7314 34.8665 39.7314 35.2476C39.7314 35.6287 40.1619 35.7962 40.8016 35.8638C41.711 35.9422 42.8901 36.0989 42.8901 37.3492C42.8901 38.2397 42.0602 38.8738 40.7912 38.8738C39.9907 38.8738 39.2213 38.6957 38.5436 37.9832L39.083 37.2708C39.5359 37.7304 40.1469 37.9865 40.7825 37.9832C41.3323 37.9832 41.8718 37.8158 41.8718 37.367C41.8718 36.9182 41.4516 36.7704 40.722 36.7027C39.8022 36.6243 38.713 36.3465 38.713 35.2779C38.713 34.2093 39.8437 33.8121 40.7618 33.8121C41.4468 33.7981 42.1165 34.0213 42.6636 34.4461L42.1242 35.082C41.7343 34.7908 41.2622 34.6399 40.7808 34.6527ZM46.2978 37.9369C46.8165 37.9369 47.4181 37.7588 47.7276 37.4187L48.3984 38.0527C47.8884 38.6102 47.0378 38.8738 46.2788 38.8738C44.6588 38.8738 43.6197 37.8871 43.6197 36.3429C43.6197 34.8772 44.6985 33.8121 46.258 33.8121C47.7086 33.8121 48.7079 34.6421 48.7079 36.3055C48.7079 36.4409 48.6975 36.5887 48.6871 36.7348H44.6934C44.7798 37.4863 45.3849 37.9369 46.2978 37.9369ZM44.702 35.8941C44.8593 35.1122 45.5094 34.7115 46.258 34.7115C47.1138 34.7115 47.6325 35.1212 47.6913 35.8941H44.702ZM53.4762 36.0491C53.4762 35.2191 52.9956 34.74 52.1467 34.74C51.7718 34.7363 51.4118 34.8909 51.1505 35.1679C50.8892 35.4448 50.7494 35.8199 50.7636 36.2058V38.758H49.7262V33.9296H50.6668L50.7273 34.6029C51.1382 34.0983 51.7459 33.8085 52.3853 33.8121C53.5748 33.8121 54.5049 34.5352 54.5049 36.0402V38.758H53.4676L53.4762 36.0491ZM56.5641 36.3429C56.5641 37.3207 57.2435 37.9369 58.1201 37.9369C58.9718 37.9369 59.6623 37.2257 59.6623 36.3483C59.6623 35.4709 58.9718 34.7596 58.1201 34.7596C57.2435 34.7596 56.5641 35.3652 56.5641 36.3429ZM63.2221 38.758H62.1848V33.9296H63.2221V38.758ZM67.0292 34.74C67.8798 34.74 68.3587 35.2191 68.3587 36.0491L68.3501 38.758H69.3874V36.0402C69.3874 34.5352 68.4573 33.8121 67.2678 33.8121C66.628 33.8085 66.0197 34.0983 65.608 34.6029L65.5475 33.9296H64.6087V38.758H65.6461V36.2058C65.6314 35.8197 65.771 35.4444 66.0325 35.1673C66.2939 34.8903 66.6542 34.7358 67.0292 34.74ZM71.7474 34.7204C72.0673 34.1434 72.8781 33.8121 73.4763 33.8121C74.8958 33.8121 75.9763 34.7026 75.9763 36.3429C75.9763 37.9459 74.8162 38.8738 73.4677 38.8738C72.847 38.8738 72.1382 38.6102 71.7474 37.9939L71.6886 38.758H70.7187V31.926H71.7561L71.7474 34.7204ZM72.2652 37.4888C71.9668 37.1875 71.8015 36.7733 71.8079 36.3429C71.8049 35.9146 71.9716 35.5034 72.2695 35.2046C72.5674 34.9058 72.9708 34.745 73.3864 34.7596C74.2837 34.7596 74.9424 35.3652 74.9424 36.3429C74.9424 37.3207 74.2872 37.9369 73.3864 37.9369C72.9689 37.9521 72.5635 37.7901 72.2652 37.4888ZM78.1444 38.758H77.107V31.926H78.1444V38.758ZM81.8737 37.9458C81.004 37.9458 80.5338 37.3795 80.5338 36.5584L80.5372 33.9296H79.5085V36.5673C79.5085 38.0242 80.373 38.8738 81.5832 38.8738C82.2363 38.8962 82.8631 38.6078 83.2827 38.0919L83.3433 38.758H84.2717V33.9296H83.243V36.489C83.2591 36.8722 83.1216 37.2453 82.8626 37.5209C82.6036 37.7965 82.246 37.9501 81.8737 37.9458ZM88.0511 37.9369C88.5698 37.9369 89.1697 37.7588 89.4809 37.4187L90.15 38.0527C89.64 38.6102 88.7911 38.8738 88.0303 38.8738C86.4121 38.8738 85.3713 37.8871 85.3713 36.3429C85.3713 34.8772 86.4518 33.8121 88.0113 33.8121C89.4601 33.8121 90.4595 34.6421 90.4595 36.3055C90.4595 36.4214 90.4519 36.5464 90.4443 36.6716C90.443 36.6926 90.4417 36.7137 90.4404 36.7348H86.4415C86.5331 37.4863 87.1417 37.9369 88.0511 37.9369ZM86.4553 35.8941C86.6109 35.1122 87.261 34.7115 88.0113 34.7115C88.8602 34.7115 89.3806 35.1212 89.4429 35.8941H86.4553Z" fill="black"/>
</svg>
